<svg width="208" height="121" viewBox="0 0 208 121" fill="none" xmlns="http://www.w3.org/2000/svg">
<path d="M38.589 82.3958H1V89.7507H38.589V82.3958Z" fill="white" stroke="#263238" stroke-linecap="round" stroke-linejoin="round"/>
<path d="M48.9977 74.6682H11.4087V82.3962H48.9977V74.6682Z" fill="white" stroke="#263238" stroke-linecap="round" stroke-linejoin="round"/>
<path d="M59.4083 66.9365H21.8193V74.6646H59.4083V66.9365Z" fill="white" stroke="#263238" stroke-linecap="round" stroke-linejoin="round"/>
<path d="M69.816 59.209H32.2271V66.937H69.816V59.209Z" fill="white" stroke="#263238" stroke-linecap="round" stroke-linejoin="round"/>
<path d="M80.6134 120.349V59.209H69.8194V66.937H59.4083V74.6683H49.0005V82.3963H38.5894V120.349H80.6134Z" fill="#263238" stroke="#263238" stroke-linecap="round" stroke-linejoin="round"/>
<path d="M80.6129 112.99H43.0239V120.345H80.6129V112.99Z" fill="white" stroke="#263238" stroke-linecap="round" stroke-linejoin="round"/>
<path d="M32.6161 112.99H70.2051V105.262H32.6161V112.99Z" fill="white" stroke="#263238" stroke-linecap="round" stroke-linejoin="round"/>
<path d="M22.2055 105.263H59.7944V97.5314H22.2055V105.263Z" fill="white" stroke="#263238" stroke-linecap="round" stroke-linejoin="round"/>
<path d="M11.7943 97.5308H49.3833V89.8027H11.7943V97.5308Z" fill="white" stroke="#263238" stroke-linecap="round" stroke-linejoin="round"/>
<path d="M1 120.348V89.803H11.7939V97.531H22.2018V105.262H32.6129V112.99H43.024V120.348H1Z" fill="#263238" stroke="#263238" stroke-linecap="round" stroke-linejoin="round"/>
<path d="M193.455 73.9024L191.009 81.9127L185.584 77.7437C185.502 77.2238 185.394 76.7083 185.26 76.1994C185.153 75.9464 184.507 75.1937 184.361 74.9017C184.215 74.6097 184.004 74.866 184.004 75.0834C184.004 75.3007 184.507 76.0177 184.507 76.0177L184.254 76.2675L182.243 75.3105C182.219 75.2996 182.194 75.2935 182.168 75.2926C182.142 75.2916 182.117 75.2958 182.092 75.3048C182.068 75.3139 182.046 75.3277 182.027 75.3453C182.009 75.363 181.994 75.3842 181.983 75.4078C181.964 75.4474 181.959 75.4925 181.97 75.5351C181.981 75.5778 182.006 75.6154 182.041 75.6414L183.141 76.4849L182.999 76.7704L181.165 76.0177C181.142 76.0084 181.117 76.0039 181.093 76.0045C181.068 76.005 181.043 76.0106 181.02 76.0209C180.998 76.0312 180.977 76.046 180.96 76.0644C180.943 76.0828 180.93 76.1045 180.922 76.128C180.91 76.1676 180.911 76.2103 180.926 76.2492C180.94 76.288 180.968 76.3208 181.003 76.3422L182.674 77.3155L181.584 77.5296C181.559 77.5347 181.535 77.5452 181.513 77.5602C181.492 77.5753 181.475 77.5946 181.461 77.6169C181.448 77.6393 181.44 77.6641 181.437 77.6899C181.434 77.7156 181.437 77.7417 181.444 77.7664C181.457 77.803 181.481 77.8347 181.512 77.8573C181.543 77.88 181.581 77.8924 181.62 77.8929H182.745L181.772 78.2498C181.772 78.2498 181.899 78.5321 182.097 78.5224L183.248 78.4672L184.939 78.5743C184.939 78.5743 190.431 84.333 190.613 84.5082C190.795 84.6834 191.872 85.0759 192.086 84.8618C192.3 84.6477 194.711 81.7343 194.711 81.7343L194.35 74.1912C194.35 74.1912 193.994 73.4774 193.455 73.9024Z" fill="white" stroke="#263238" stroke-linecap="round" stroke-linejoin="round"/>
<path d="M194.753 64.6624C194.753 64.6624 193.705 64.7338 193.212 63.0402C192.719 61.3467 193.984 60.8665 194.685 60.727C195.386 60.5875 195.525 59.0464 196.716 58.8356C197.906 58.6247 199.165 59.6077 199.447 60.4577C199.73 61.3078 201.55 60.036 202.598 61.1585C203.646 62.2811 203.571 64.4483 203.571 65.2204C203.571 65.9926 205.952 66.1321 205.952 67.9522C205.952 69.7723 205.67 70.6839 205.81 70.9629C205.949 71.2419 207 76.978 207 76.978H193.929C193.929 76.978 193.51 72.7863 194 71.7351C194.49 70.6839 194.912 70.6125 195.119 69.6327C195.327 68.653 195.119 67.1119 194.98 66.4111C194.874 65.8325 194.799 65.2488 194.753 64.6624Z" fill="#263238" stroke="#263238" stroke-linecap="round" stroke-linejoin="round"/>
<path d="M197.277 72.0181L193.354 72.0895L194.123 81.683L201.55 82.2443L205.05 72.2971L200.849 71.95L197.277 72.0181Z" fill="#263238" stroke="#263238" stroke-linecap="round" stroke-linejoin="round"/>
<path d="M196.014 62.4207C196.014 62.4207 194.963 63.8936 194.752 64.6625C194.477 65.5516 194.417 66.4936 194.577 67.4105C194.788 68.4616 195.385 70.1974 195.804 70.3304C196.222 70.4634 197.345 70.3304 197.345 70.3304L197.277 72.011H196.715L196.783 74.5318L199.447 74.6713L200.849 71.9396L200.148 71.8001L199.658 67.67C199.658 67.67 200.355 66.8979 200.427 66.3366C200.466 66.0581 200.49 65.7775 200.498 65.4963C200.498 65.4963 199.658 66.129 198.957 65.4963C198.256 64.8637 198.045 64.1661 197.835 63.4654C197.624 62.7646 197.205 62.2065 196.861 62.2065C196.569 62.232 196.283 62.3043 196.014 62.4207Z" fill="white" stroke="#263238" stroke-linecap="round" stroke-linejoin="round"/>
<path d="M197.345 70.3367L198.536 69.9148L197.417 71.1772L197.345 70.3367Z" fill="#263238" stroke="#263238" stroke-linecap="round" stroke-linejoin="round"/>
<path d="M194.123 81.6821L193.355 84.1349C193.355 84.1349 190.551 87.1456 189.99 92.7486C189.429 98.3516 190.341 103.886 190.623 106.128C190.905 108.37 193.604 118.278 193.604 118.278H195.428C195.428 118.278 194.753 109.071 194.753 108.159V103.046L199.902 117.204L201.585 117.276C201.585 117.276 200.911 110.589 200.492 107.867C200.203 106.078 199.807 104.308 199.308 102.566C199.308 102.566 203.013 95.2143 203.013 90.1596C203.013 85.1049 201.751 83.9953 201.751 83.9953L201.543 82.2434L194.123 81.6821Z" fill="#BABABA" stroke="#263238" stroke-linecap="round" stroke-linejoin="round"/>
<path d="M196.372 89.3751C196.615 88.2815 196.784 87.561 196.784 87.561" stroke="#263238" stroke-linecap="round" stroke-linejoin="round"/>
<path d="M194.753 103.046C194.753 103.046 194.474 101.644 194.685 98.6337C194.808 96.8558 195.515 93.3259 196.077 90.7305" stroke="#263238" stroke-linecap="round" stroke-linejoin="round"/>
<path d="M193.604 118.279C193.604 118.279 190.314 119.82 190.314 120.17C190.314 120.521 195.567 120.17 195.567 120.17C195.689 119.834 195.736 119.475 195.707 119.119C195.664 118.825 195.569 118.54 195.428 118.279H193.604Z" fill="white" stroke="#263238" stroke-linecap="round" stroke-linejoin="round"/>
<path d="M199.901 117.205C199.901 117.205 198.363 119.168 197.87 119.658C197.377 120.147 197.52 120.498 197.942 120.498C198.363 120.498 200.745 120.358 201.163 120.079C201.401 119.926 201.613 119.737 201.793 119.518L201.585 117.276L199.901 117.205Z" fill="white" stroke="#263238" stroke-linecap="round" stroke-linejoin="round"/>
<path d="M204.635 73.5586C204.635 73.5586 205.268 82.8731 204.706 83.8561C204.145 84.8392 202.536 84.2747 202.396 83.8561C202.257 83.4376 202.536 79.791 202.536 79.791L204.635 73.5586Z" fill="white" stroke="#263238" stroke-linecap="round" stroke-linejoin="round"/>
<path d="M187.576 51.2816L157.886 55.6077L165.375 107.01L195.066 102.684L187.576 51.2816Z" fill="#349EFF" stroke="#263238" stroke-linecap="round" stroke-linejoin="round"/>
<path d="M185.759 59.0596C185.289 59.1285 184.809 59.104 184.349 58.9875C183.888 58.871 183.454 58.6648 183.073 58.3806C182.692 58.0965 182.37 57.74 182.127 57.3316C181.884 56.9231 181.723 56.4707 181.655 56.0002C181.636 55.8517 181.625 55.7022 181.623 55.5525L164.574 58.0344C164.616 58.178 164.649 58.3244 164.671 58.4724C164.808 59.4226 164.563 60.3885 163.989 61.158C163.414 61.9275 162.558 62.4377 161.608 62.5765C161.534 62.5765 161.462 62.5927 161.388 62.5992L166.734 99.3252C166.809 99.309 166.88 99.2928 166.955 99.283C167.426 99.2142 167.906 99.2391 168.368 99.3562C168.829 99.4733 169.263 99.6804 169.644 99.9655C170.026 100.251 170.347 100.608 170.59 101.018C170.832 101.427 170.992 101.881 171.059 102.352C171.081 102.5 171.093 102.65 171.095 102.8L188.141 100.318C188.099 100.173 188.067 100.026 188.046 99.8767C187.978 99.4065 188.002 98.9273 188.119 98.4666C188.235 98.0059 188.442 97.5727 188.726 97.1918C189.01 96.8109 189.366 96.4897 189.775 96.2468C190.183 96.0038 190.636 95.8438 191.106 95.7759C191.254 95.7543 191.404 95.7424 191.554 95.7402L186.197 58.9655C186.053 59.0053 185.907 59.0367 185.759 59.0596ZM177.324 85.0144C176.163 85.1837 174.977 85.0048 173.918 84.5004C172.858 83.996 171.972 83.1887 171.371 82.1806C170.77 81.1725 170.481 80.0089 170.542 78.8369C170.602 77.6649 171.009 76.5371 171.71 75.5962C172.412 74.6552 173.376 73.9434 174.482 73.5507C175.588 73.158 176.786 73.1021 177.924 73.3899C179.061 73.6778 180.088 74.2966 180.874 75.168C181.66 76.0394 182.17 77.1243 182.34 78.2856C182.454 79.0578 182.415 79.8449 182.225 80.6019C182.034 81.3589 181.697 82.071 181.231 82.6972C180.765 83.3235 180.18 83.8517 179.509 84.2515C178.839 84.6514 178.096 84.915 177.324 85.0274V85.0144Z" fill="white" stroke="#263238" stroke-linecap="round" stroke-linejoin="round"/>
<path d="M182.644 52.3795L153.54 60.1804L167.046 110.567L196.149 102.766L182.644 52.3795Z" fill="#349EFF" stroke="#263238" stroke-width="1.00424" stroke-linecap="round" stroke-linejoin="round"/>
<path d="M180.802 60.2952C179.875 60.543 178.887 60.4125 178.056 59.9325C177.225 59.4526 176.619 58.6623 176.37 57.7354C176.333 57.5899 176.304 57.4427 176.282 57.2942L159.642 61.7454C159.699 61.8841 159.748 62.0261 159.788 62.1704C159.911 62.6297 159.943 63.1088 159.88 63.5802C159.818 64.0516 159.664 64.5061 159.425 64.9177C159.187 65.3293 158.871 65.69 158.493 65.979C158.115 66.268 157.685 66.4798 157.225 66.6022C157.154 66.6217 157.079 66.6347 157.008 66.6509L166.598 102.504L166.812 102.436C167.271 102.313 167.75 102.281 168.221 102.343C168.693 102.406 169.147 102.56 169.559 102.798C169.97 103.035 170.331 103.352 170.62 103.729C170.909 104.106 171.121 104.537 171.244 104.996C171.283 105.141 171.312 105.288 171.332 105.437L187.972 100.986C187.915 100.847 187.866 100.705 187.826 100.561C187.578 99.6332 187.709 98.6453 188.19 97.8142C188.67 96.9831 189.461 96.377 190.389 96.129C190.534 96.0886 190.681 96.0593 190.83 96.0414L181.227 60.1492C181.088 60.2066 180.946 60.2553 180.802 60.2952ZM175.436 87.0675C174.302 87.3673 173.104 87.3242 171.994 86.9436C170.885 86.563 169.913 85.862 169.201 84.9292C168.49 83.9964 168.071 82.8737 167.997 81.7029C167.924 80.532 168.199 79.3657 168.788 78.3511C169.377 77.3366 170.253 76.5194 171.307 76.0029C172.36 75.4864 173.543 75.2936 174.705 75.4491C175.868 75.6045 176.959 76.1011 177.84 76.8761C178.72 77.6511 179.351 78.6698 179.653 79.8035C179.855 80.5574 179.905 81.3436 179.802 82.1171C179.699 82.8905 179.444 83.636 179.052 84.3108C178.66 84.9857 178.139 85.5765 177.519 86.0496C176.898 86.5226 176.19 86.8686 175.436 87.0675Z" fill="white" stroke="#263238" stroke-linecap="round" stroke-linejoin="round"/>
<path d="M203.013 82.3147L192.576 82.1039C192.576 82.1039 190.474 81.4031 190.123 81.4031C189.631 81.4824 189.147 81.605 188.676 81.7697C188.631 81.784 188.593 81.8144 188.569 81.8551C188.545 81.8958 188.537 81.944 188.546 81.9903C188.557 82.039 188.585 82.0817 188.627 82.1096C188.668 82.1374 188.718 82.1482 188.767 82.1395L189.776 81.9644L190.055 82.172L188.034 83.4697C187.993 83.4964 187.963 83.5377 187.951 83.5852C187.939 83.6327 187.946 83.683 187.969 83.726C187.993 83.7697 188.032 83.8027 188.079 83.8184C188.126 83.834 188.177 83.8312 188.222 83.8104L189.74 83.0966L189.792 83.4795L188.17 84.3262C188.119 84.3533 188.079 84.3984 188.059 84.4528C188.038 84.5073 188.039 84.5673 188.06 84.6215C188.081 84.6734 188.12 84.7161 188.17 84.7422C188.22 84.7683 188.277 84.7761 188.332 84.7642L188.926 84.628C188.995 84.7118 189.086 84.7739 189.189 84.8067C189.292 84.8395 189.403 84.8417 189.507 84.8129L190.613 84.4885L189.912 84.9362C189.885 84.9524 189.862 84.9749 189.845 85.0018C189.828 85.0287 189.818 85.0593 189.815 85.0909C189.812 85.1226 189.817 85.1545 189.829 85.184C189.841 85.2135 189.859 85.2397 189.883 85.2606C189.918 85.288 189.962 85.3028 190.006 85.3028C190.051 85.3028 190.094 85.288 190.13 85.2606L191.531 84.3035L192.732 83.5379L203.308 85.4001C203.308 85.4001 204.2 85.478 204.356 85.2995C204.512 85.1211 204.814 83.434 204.84 82.9993" fill="white"/>
<path d="M203.013 82.3147L192.576 82.1039C192.576 82.1039 190.474 81.4031 190.123 81.4031C189.631 81.4824 189.147 81.605 188.676 81.7697C188.631 81.784 188.593 81.8144 188.569 81.8551C188.545 81.8958 188.537 81.944 188.546 81.9903V81.9903C188.557 82.039 188.585 82.0817 188.627 82.1096C188.668 82.1374 188.718 82.1482 188.767 82.1395L189.776 81.9644L190.055 82.172L188.034 83.4697C187.993 83.4964 187.963 83.5377 187.951 83.5852C187.939 83.6327 187.946 83.683 187.969 83.726V83.726C187.993 83.7697 188.032 83.8027 188.079 83.8184C188.126 83.834 188.177 83.8312 188.222 83.8104L189.74 83.0966L189.792 83.4795L188.17 84.3262C188.119 84.3533 188.079 84.3984 188.059 84.4528C188.038 84.5073 188.039 84.5673 188.06 84.6215C188.081 84.6734 188.12 84.7161 188.17 84.7422C188.22 84.7683 188.277 84.7761 188.332 84.7642L188.926 84.628C188.995 84.7118 189.086 84.7739 189.189 84.8067C189.292 84.8395 189.403 84.8417 189.507 84.8129L190.613 84.4885L189.912 84.9362C189.885 84.9524 189.862 84.9749 189.845 85.0018C189.828 85.0287 189.818 85.0593 189.815 85.0909C189.812 85.1226 189.817 85.1545 189.829 85.184C189.841 85.2135 189.859 85.2397 189.883 85.2606V85.2606C189.918 85.288 189.962 85.3028 190.006 85.3028C190.051 85.3028 190.094 85.288 190.13 85.2606L191.531 84.3035L192.732 83.5379L203.308 85.4001C203.308 85.4001 204.2 85.478 204.356 85.2995C204.512 85.1211 204.814 83.434 204.84 82.9993" stroke="#263238" stroke-linecap="round" stroke-linejoin="round"/>
<path d="M188.929 84.6348L190.36 84.0994" stroke="#263238" stroke-linecap="round" stroke-linejoin="round"/>
<path d="M195.691 65.5801C195.691 65.8203 195.567 66.0182 195.411 66.0182C195.256 66.0182 195.132 65.8203 195.132 65.5801C195.132 65.34 195.259 65.1453 195.411 65.1453C195.564 65.1453 195.691 65.34 195.691 65.5801Z" fill="#263238"/>
<path d="M197.257 65.9117C197.257 66.1518 197.131 66.3465 196.978 66.3465C196.826 66.3465 196.699 66.1518 196.699 65.9117C196.699 65.6715 196.826 65.4768 196.978 65.4768C197.131 65.4768 197.257 65.6715 197.257 65.9117Z" fill="#263238"/>
<path d="M195.064 64.5902C195.064 64.5902 195.344 64.2397 195.898 64.6226" stroke="#263238" stroke-linecap="round" stroke-linejoin="round"/>
<path d="M196.663 64.7987C196.853 64.7237 197.065 64.7254 197.254 64.8035C197.443 64.8816 197.594 65.03 197.676 65.2174" stroke="#263238" stroke-linecap="round" stroke-linejoin="round"/>
<path d="M195.969 65.5994C196.006 65.8081 195.994 66.0226 195.933 66.2257C195.829 66.4691 195.343 66.9202 195.378 67.0273C195.414 67.1344 195.654 67.1993 195.654 67.1993" stroke="#263238" stroke-linecap="round" stroke-linejoin="round"/>
<path d="M195.343 68.0366C195.343 68.0366 196.317 68.4877 197.083 67.8613" stroke="#263238" stroke-linecap="round" stroke-linejoin="round"/>
<path d="M86.6007 41.5358C92.4521 41.5358 97.1957 36.5303 97.1957 30.3558C97.1957 24.1812 92.4521 19.1758 86.6007 19.1758C80.7493 19.1758 76.5908 24.1174 76.5908 30.2919C76.5908 36.4665 80.7493 41.5358 86.6007 41.5358Z" fill="white" stroke="#263238" stroke-linecap="round" stroke-linejoin="round"/>
<path d="M88.1951 41.5104C94.3697 41.5104 99.3752 36.505 99.3752 30.3304C99.3752 24.1558 94.3697 19.1504 88.1951 19.1504C82.0206 19.1504 77.0151 24.1558 77.0151 30.3304C77.0151 36.505 82.0206 41.5104 88.1951 41.5104Z" fill="#FFC000" stroke="black" stroke-width="0.5" stroke-linecap="round" stroke-linejoin="round"/>
<path d="M94.9051 37.0383C98.6098 33.3336 98.6098 27.3271 94.9051 23.6224C91.2004 19.9177 85.1939 19.9177 81.4892 23.6224C77.7845 27.3271 77.7845 33.3336 81.4892 37.0383C85.1939 40.743 91.2004 40.743 94.9051 37.0383Z" fill="#FFC000" stroke="black" stroke-width="0.5" stroke-linecap="round" stroke-linejoin="round"/>
<path d="M88.3022 37.0013V35.7522C87.3808 35.7176 86.6919 35.4224 86.2356 34.8665C85.7792 34.3106 85.5326 33.4822 85.4958 32.3813L87.3905 32.0569C87.3987 32.4338 87.4454 32.8088 87.53 33.1762C87.5807 33.4274 87.6997 33.6598 87.8739 33.8478C87.9522 33.923 88.0448 33.9816 88.1463 34.02C88.2478 34.0585 88.356 34.0761 88.4644 34.0716C88.5751 34.0835 88.687 34.0646 88.7877 34.0171C88.8884 33.9696 88.9741 33.8953 89.0354 33.8023C89.1393 33.6126 89.1919 33.399 89.1879 33.1827C89.1996 32.7767 89.0864 32.3769 88.8635 32.0374C88.6172 31.6891 88.3259 31.3749 87.9972 31.103L86.8585 30.1297C86.6082 29.8995 86.374 29.6524 86.1577 29.39C85.9495 29.1327 85.7841 28.8435 85.6678 28.5335C85.5401 28.1666 85.4786 27.7799 85.4861 27.3915C85.4646 27.0319 85.5175 26.6717 85.6414 26.3334C85.7653 25.9952 85.9577 25.6861 86.2064 25.4254C86.7312 24.9349 87.4156 24.6503 88.1335 24.6241V23.4302H88.7824V24.6241C89.1989 24.6322 89.607 24.7437 89.9698 24.9485C90.2641 25.1246 90.5077 25.3738 90.6771 25.672C90.8392 25.9711 90.9562 26.2925 91.0242 26.6259C91.0935 26.9552 91.1391 27.2892 91.1605 27.6251L89.2398 27.9074C89.234 27.6127 89.2069 27.3189 89.1587 27.0282C89.1287 26.8125 89.0463 26.6075 88.9186 26.4312C88.8518 26.3567 88.7679 26.2994 88.6741 26.2644C88.5803 26.2294 88.4794 26.2176 88.3801 26.23C88.268 26.2287 88.1573 26.255 88.0578 26.3065C87.9582 26.3579 87.8728 26.4331 87.8091 26.5253C87.6769 26.7154 87.6087 26.9427 87.6144 27.1741C87.5987 27.5288 87.7027 27.8785 87.9096 28.1669C88.1152 28.4244 88.3397 28.6663 88.5812 28.8904L89.6973 29.8637C89.9928 30.1322 90.2662 30.424 90.5148 30.7364C90.7661 31.052 90.9695 31.4029 91.1183 31.7779C91.277 32.1918 91.3552 32.6323 91.3486 33.0756C91.3548 33.5248 91.2559 33.9692 91.0599 34.3734C90.8724 34.7585 90.5843 35.0858 90.2261 35.3207C89.8424 35.5708 89.4014 35.7193 88.9446 35.7522V37.0142L88.3022 37.0013Z" fill="#FFC000" stroke="black" stroke-width="0.5" stroke-linecap="round" stroke-linejoin="round"/>
<path d="M60.1123 28.949L60.4659 45.3394L60.3232 56.9931L62.2309 56.7108C62.2309 56.7108 64.2813 45.7612 64.2813 45.1253C64.2813 44.4894 65.4103 36.3655 65.4103 36.3655L67.5289 46.8902L68.6287 56.9898L70.5364 56.7076C70.5364 56.7076 70.7797 45.7579 70.7797 43.7821C70.7797 41.8063 70.6824 29.0852 70.6824 29.0852L64.7031 27.5344L60.1123 28.949Z" fill="#263238" stroke="#263238" stroke-linecap="round" stroke-linejoin="round"/>
<path d="M62.2309 56.7112C62.2309 56.7112 65.0567 58.5475 64.635 58.9822C64.2132 59.417 61.8773 58.9822 61.2414 58.9108C60.9477 58.8994 60.6594 58.8276 60.3946 58.7L60.3232 57.0032L62.2309 56.7112Z" fill="white" stroke="#263238" stroke-linecap="round" stroke-linejoin="round"/>
<path d="M70.5366 56.7112C70.5366 56.7112 73.3624 58.5475 72.9374 58.9822C72.5124 59.417 70.1829 58.9822 69.5471 58.9108C69.2533 58.8994 68.9651 58.8276 68.7003 58.7L68.6289 57.0032L70.5366 56.7112Z" fill="white" stroke="#263238" stroke-linecap="round" stroke-linejoin="round"/>
<path d="M85.1001 18.814L87.6469 18.2268C87.6469 18.2268 90.0931 19.5245 90.2975 19.7095C90.5019 19.8944 90.0931 19.9139 89.6487 19.9139C88.9517 19.8207 88.2614 19.683 87.582 19.5018C87.582 19.5018 88.6494 19.8263 88.4775 19.9852C88.381 20.0601 88.2701 20.114 88.1517 20.1436C88.0332 20.1732 87.91 20.1778 87.7897 20.1572C87.6177 20.1215 86.9623 20.0177 86.9623 20.0177C86.9623 20.0177 85.8268 19.9852 85.4829 19.9139L85.139 19.8457L85.1001 18.814Z" fill="#FFC000" stroke="#263238" stroke-linecap="round" stroke-linejoin="round"/>
<path d="M68.6253 8.71357C68.6253 8.71357 62.8309 11.9579 62.0847 12.889C61.3385 13.8202 61.0887 18.4953 60.5891 21.798C60.2623 24.2566 60.0749 26.7316 60.0278 29.2113C60.0278 29.2113 64.2033 29.7726 66.5165 29.711C67.9279 29.6677 69.3294 29.4586 70.692 29.0881C70.692 29.0881 71.5031 24.9126 71.688 24.2897C71.8729 23.6668 73.3718 16.1788 73.3718 16.1788L77.982 19.8546H85.1001V18.8002C85.1001 18.8002 79.4679 17.5025 79.4063 17.2981C79.3447 17.0937 74.6079 10.3195 73.1739 9.51168C71.7399 8.70383 69.6246 7.96412 68.6253 8.71357Z" fill="#349EFF" stroke="#263238" stroke-linecap="round" stroke-linejoin="round"/>
<path d="M69.1866 6.90625L68.129 9.45955C68.129 9.45955 67.6294 9.58608 67.7559 10.5821C67.8824 11.5781 69.125 14.3812 69.5597 14.3196C69.9945 14.2579 71.3668 10.5367 71.3668 10.5367L69.1866 6.90625Z" fill="white" stroke="#263238" stroke-linecap="round" stroke-linejoin="round"/>
<path d="M69.7837 9.7251L70.225 13.1294L71.0558 11.4548L69.7837 9.7251Z" fill="#263238" stroke="#263238" stroke-linecap="round" stroke-linejoin="round"/>
<path d="M75.1077 5.41091C75.3129 5.58364 75.5665 5.68854 75.8338 5.7112C76.101 5.73386 76.3687 5.67316 76.6001 5.53744C77.5377 5.09945 77.9724 4.16508 77.1613 3.41888C76.3503 2.67268 75.9155 3.48053 75.6657 2.48451C75.4159 1.4885 74.4199 0.803943 73.5634 1.05051C72.7069 1.29708 73.0053 1.61178 72.3824 1.79671C71.7595 1.98164 70.9484 1.42361 70.1373 2.2347C69.3263 3.04579 69.203 4.97617 69.018 5.8489C68.8331 6.72163 69.641 6.9682 70.3158 6.90656C70.9906 6.84491 71.5616 5.41091 72.1229 4.95995C72.6841 4.50898 75.1077 5.41091 75.1077 5.41091Z" fill="#263238" stroke="#263238" stroke-linecap="round" stroke-linejoin="round"/>
<path d="M69.0636 7.15657C69.0636 7.15657 69.1253 8.52569 69.3881 8.96367C69.6509 9.40166 70.6858 11.4553 71.0686 11.4553C71.4677 11.4831 71.8686 11.4402 72.2528 11.3288C72.5026 11.2055 73.4987 9.89804 74.1216 8.7755C74.7445 7.65296 75.1208 5.41111 75.1208 5.41111C75.1208 5.41111 72.1295 3.54237 71.9414 3.91547C71.7532 4.28857 71.8181 4.84984 71.5066 4.91149C71.1952 4.97313 70.5106 5.03802 70.5106 5.03802C70.5106 5.03802 70.6955 5.91074 70.4457 6.09567C70.1959 6.2806 69.573 5.91074 69.573 5.91074C69.573 5.91074 68.8138 6.03403 69.0636 7.15657Z" fill="white" stroke="#263238" stroke-linecap="round" stroke-linejoin="round"/>
<path d="M72.5286 7.37696C72.4734 7.61386 72.3209 7.78261 72.204 7.75341C72.0872 7.7242 72.0093 7.50352 72.0645 7.26662C72.1197 7.02971 72.2722 6.85771 72.4052 6.89017C72.5383 6.92262 72.5902 7.14005 72.5286 7.37696Z" fill="#263238"/>
<path d="M74.1572 7.83155C74.0988 8.0717 73.9495 8.2372 73.8165 8.208C73.6834 8.17879 73.6218 7.95811 73.6769 7.72121C73.7321 7.4843 73.8846 7.3123 74.0014 7.34476C74.1183 7.37721 74.2124 7.59464 74.1572 7.83155Z" fill="#263238"/>
<path d="M71.8472 6.48471C71.8472 6.48471 72.0938 6.28675 72.8207 6.48471" stroke="#263238" stroke-linecap="round" stroke-linejoin="round"/>
<path d="M73.9136 6.9292C74.0437 6.94403 74.169 6.98679 74.281 7.05457C74.3931 7.12234 74.4891 7.21353 74.5626 7.32188" stroke="#263238" stroke-linecap="round" stroke-linejoin="round"/>
<path d="M73.3713 7.81567L73.1247 9.14299L72.3394 9.04563" stroke="#263238" stroke-linecap="round" stroke-linejoin="round"/>
<path d="M72.0937 9.82936C72.0937 9.82936 71.3538 9.82936 71.1201 8.79736" stroke="#263238" stroke-linecap="round" stroke-linejoin="round"/>
<path d="M69.8717 6.47225C69.8717 6.47225 69.7484 5.03784 69.1869 5.03784C68.6255 5.03784 68.129 6.33595 68.4405 6.90711C68.7521 7.47828 69.5601 7.65352 69.5601 7.65352" fill="white"/>
<path d="M69.8717 6.47225C69.8717 6.47225 69.7484 5.03784 69.1869 5.03784C68.6255 5.03784 68.129 6.33595 68.4405 6.90711C68.7521 7.47828 69.5601 7.65352 69.5601 7.65352" stroke="#263238" stroke-linecap="round" stroke-linejoin="round"/>
<path d="M64.9009 14.0056L65.9813 22.96L75.0654 26.0649L75.2082 27.116L63.0613 25.4614L61.1147 15.3845C60.8779 14.1614 61.5073 12.8344 62.38 12.0915C63.2528 11.3485 64.6219 11.3096 64.6219 11.3096" fill="#349EFF"/>
<path d="M64.9009 14.0056L65.9813 22.96L75.0654 26.0649L75.2082 27.116L63.0613 25.4614L61.1147 15.3845C60.8779 14.1614 61.5073 12.8344 62.38 12.0915C63.2528 11.3485 64.6219 11.3096 64.6219 11.3096" stroke="#263238" stroke-linecap="round" stroke-linejoin="round"/>
<path d="M75.0527 26.0651C75.0527 26.0651 76.5001 25.6595 76.6754 25.6238C76.8506 25.5881 77.8339 26.3507 78.0286 26.3767C78.2234 26.4026 78.5544 26.4643 78.5381 26.7207C78.5219 26.9771 78.4375 27.1847 77.9637 27.0225C77.694 26.9347 77.4314 26.8262 77.1784 26.698C77.6236 27.1536 78.0961 27.5816 78.5933 27.9798C78.7724 28.0922 78.9361 28.2275 79.0801 28.3822C79.1021 28.4057 79.1183 28.4341 79.1272 28.465C79.1362 28.4959 79.1378 28.5285 79.1318 28.5602C79.1257 28.5918 79.1123 28.6216 79.0927 28.647C79.073 28.6725 79.0475 28.693 79.0184 28.7068C78.6303 28.8915 78.2109 29.0016 77.782 29.0313C77.0875 29.0313 75.1858 27.1198 75.1858 27.1198L75.0527 26.0651Z" fill="#FFC000" stroke="#263238" stroke-linecap="round" stroke-linejoin="round"/>
<path d="M131.701 52.6361C131.701 52.6361 140.986 47.3997 142.339 47.9058C143.692 48.4119 141.155 58.7127 140.818 59.3875C140.48 60.0624 131.701 52.6361 131.701 52.6361Z" fill="#349EFF" stroke="#263238" stroke-linecap="round" stroke-linejoin="round"/>
<path d="M141.83 49.2588C141.83 49.2588 141.428 49.8849 140.915 50.7869C140.02 52.3636 138.793 54.7839 138.793 56.1822C138.793 58.3754 140.143 58.2067 140.481 56.5067L141.661 51.6077" stroke="#263238" stroke-linecap="round" stroke-linejoin="round"/>
<path d="M63.7845 80.1088C66.3307 80.1088 68.3947 77.4216 68.3947 74.1068C68.3947 70.7919 66.3307 68.1047 63.7845 68.1047C61.2384 68.1047 59.1743 70.7919 59.1743 74.1068C59.1743 77.4216 61.2384 80.1088 63.7845 80.1088Z" fill="#349EFF" stroke="#263238" stroke-linecap="round" stroke-linejoin="round"/>
<path d="M105.571 117.175C129.832 117.175 149.5 100.525 149.5 79.9853C149.5 59.4459 129.832 42.7954 105.571 42.7954C81.3105 42.7954 61.6431 59.4459 61.6431 79.9853C61.6431 100.525 81.3105 117.175 105.571 117.175Z" fill="#349EFF" stroke="#263238" stroke-linecap="round" stroke-linejoin="round"/>
<path d="M134.102 105.622C126.64 111.566 116.615 115.209 105.572 115.209C85.8621 115.209 69.3517 103.604 65.0562 88.0249" fill="#349EFF"/>
<path d="M134.102 105.622C126.64 111.566 116.615 115.209 105.572 115.209C85.8621 115.209 69.3517 103.604 65.0562 88.0249" stroke="#263238" stroke-width="2" stroke-linecap="round" stroke-linejoin="round"/>
<path d="M63.992 81.1535C63.9757 80.7674 63.9692 80.3781 63.9692 79.9855C63.9703 75.7385 64.8611 71.5388 66.5842 67.657" fill="#349EFF"/>
<path d="M63.992 81.1535C63.9757 80.7674 63.9692 80.3781 63.9692 79.9855C63.9703 75.7385 64.8611 71.5388 66.5842 67.657" stroke="#263238" stroke-width="2" stroke-linecap="round" stroke-linejoin="round"/>
<path d="M92.3804 46.8899C101.025 44.4459 110.177 44.4459 118.822 46.8899" stroke="#263238" stroke-width="5" stroke-linecap="round" stroke-linejoin="round"/>
<path d="M147.067 68.5066C147.067 68.5066 152.641 66.6475 153.484 67.663C154.328 68.6785 154.328 80.4944 153.653 82.6908C152.978 84.8873 148.417 84.3779 145.218 82.016C144.301 81.372 143.558 80.5099 143.058 79.5074C142.557 78.5049 142.314 77.3935 142.35 76.2735" fill="#349EFF"/>
<path d="M147.067 68.5066C147.067 68.5066 152.641 66.6475 153.484 67.663C154.328 68.6785 154.328 80.4944 153.653 82.6908C152.978 84.8873 148.417 84.3779 145.218 82.016C144.301 81.372 143.558 80.5099 143.058 79.5074C142.557 78.5049 142.314 77.3935 142.35 76.2735" stroke="#263238" stroke-linecap="round" stroke-linejoin="round"/>
<path d="M143.69 75.7683L140.312 76.2746" stroke="#263238" stroke-linecap="round" stroke-linejoin="round"/>
<path d="M142.846 79.4832C142.846 79.4832 142.002 85.3943 143.014 85.5631C144.027 85.7318 145.717 82.6918 145.717 82.6918C145.717 82.6918 143.352 79.9893 142.846 79.4832Z" fill="#263238" stroke="#263238" stroke-linecap="round" stroke-linejoin="round"/>
<path d="M139.773 65.6388C140.098 66.8555 139.9 67.9585 139.358 68.0981C138.816 68.2376 138.125 67.3616 137.81 66.1514C137.496 64.9413 137.684 63.8317 138.226 63.6922C138.767 63.5527 139.462 64.419 139.773 65.6388Z" fill="#263238"/>
<path d="M122.029 49.2742C122.029 49.2742 132.655 38.6489 134.728 40.7221C136.801 42.7952 136.025 51.8664 136.025 53.1641V56.7913" fill="#349EFF"/>
<path d="M122.029 49.2742C122.029 49.2742 132.655 38.6489 134.728 40.7221C136.801 42.7952 136.025 51.8664 136.025 53.1641V56.7913" stroke="#263238" stroke-linecap="round" stroke-linejoin="round"/>
<path d="M135.079 43.0099C135.079 43.0099 135.248 40.3074 134.064 41.9977C132.88 43.688 129.506 55.3352 130.518 56.6881C131.53 58.041 134.411 57.3629 135.079 54.8291C135.748 52.2952 135.248 45.0344 135.248 45.0344" stroke="#263238" stroke-linecap="round" stroke-linejoin="round"/>
<path d="M76.918 104.636L82.7318 120.348H89.1492L92.0172 112.241" fill="#349EFF"/>
<path d="M76.918 104.636L82.7318 120.348H89.1492L92.0172 112.241" stroke="#263238" stroke-linecap="round" stroke-linejoin="round"/>
<path d="M130.517 106.67L124.946 120.348H118.529L115.658 112.241" fill="#349EFF"/>
<path d="M130.517 106.67L124.946 120.348H118.529L115.658 112.241" stroke="#263238" stroke-linecap="round" stroke-linejoin="round"/>
<g opacity="0.35" filter="url(#filter0_f_245_221)">
<path d="M124.566 77.3486C127.474 77.3486 129.831 75.0657 129.831 72.2496C129.831 69.4335 127.474 67.1506 124.566 67.1506C121.658 67.1506 119.3 69.4335 119.3 72.2496C119.3 75.0657 121.658 77.3486 124.566 77.3486Z" fill="#FFC0CB"/>
</g>
<g opacity="0.35" filter="url(#filter1_b_245_221)">
<path d="M124.566 77.3486C127.474 77.3486 129.831 75.0657 129.831 72.2496C129.831 69.4335 127.474 67.1506 124.566 67.1506C121.658 67.1506 119.3 69.4335 119.3 72.2496C119.3 75.0657 121.658 77.3486 124.566 77.3486Z" fill="#FFC0CB"/>
</g>
<path d="M115.156 69.1986V65.0056H92.0947V69.1986H99.4324C102.162 69.1986 104.466 70.9554 105.334 73.3915H92.0947V77.5844H105.334C104.904 78.8072 104.105 79.8667 103.049 80.6174C101.992 81.3682 100.729 81.7734 99.4324 81.7774H92.0947V86.8382L103.806 98.5491H109.734L97.1556 85.9703H99.4324C101.847 85.9671 104.187 85.1312 106.058 83.6036C107.929 82.076 109.215 79.9501 109.701 77.5844H115.156V73.3915H109.701C109.38 71.8657 108.717 70.4323 107.764 69.1986H115.156Z" fill="white"/>
<defs>
<filter id="filter0_f_245_221" x="115.3" y="63.1506" width="18.5312" height="18.198" filterUnits="userSpaceOnUse" color-interpolation-filters="sRGB">
<feFlood flood-opacity="0" result="BackgroundImageFix"/>
<feBlend mode="normal" in="SourceGraphic" in2="BackgroundImageFix" result="shape"/>
<feGaussianBlur stdDeviation="2" result="effect1_foregroundBlur_245_221"/>
</filter>
<filter id="filter1_b_245_221" x="115.3" y="63.1506" width="18.5312" height="18.198" filterUnits="userSpaceOnUse" color-interpolation-filters="sRGB">
<feFlood flood-opacity="0" result="BackgroundImageFix"/>
<feGaussianBlur in="BackgroundImage" stdDeviation="2"/>
<feComposite in2="SourceAlpha" operator="in" result="effect1_backgroundBlur_245_221"/>
<feBlend mode="normal" in="SourceGraphic" in2="effect1_backgroundBlur_245_221" result="shape"/>
</filter>
</defs>
</svg>
